<?xml version="1.0" encoding="UTF-8" standalone="no"?>
<!-- Created with Inkscape (http://www.inkscape.org/) -->

<svg
   width="1500"
   height="750"
   viewBox="0 0 396.875 198.4375"
   version="1.1"
   id="svg5"
   sodipodi:docname="logo copy.svg"
   inkscape:version="1.2.1 (9c6d41e, 2022-07-14)"
   inkscape:export-filename="repository_banner.png"
   inkscape:export-xdpi="327.67999"
   inkscape:export-ydpi="327.67999"
   xml:space="preserve"
   xmlns:inkscape="http://www.inkscape.org/namespaces/inkscape"
   xmlns:sodipodi="http://sodipodi.sourceforge.net/DTD/sodipodi-0.dtd"
   xmlns:xlink="http://www.w3.org/1999/xlink"
   xmlns="http://www.w3.org/2000/svg"
   xmlns:svg="http://www.w3.org/2000/svg"><sodipodi:namedview
     id="namedview7"
     pagecolor="#ffffff"
     bordercolor="#000000"
     borderopacity="0.25"
     inkscape:showpageshadow="2"
     inkscape:pageopacity="0.0"
     inkscape:pagecheckerboard="0"
     inkscape:deskcolor="#d1d1d1"
     inkscape:document-units="mm"
     showgrid="false"
     inkscape:zoom="0.44887847"
     inkscape:cx="776.3794"
     inkscape:cy="453.3521"
     inkscape:window-width="1512"
     inkscape:window-height="841"
     inkscape:window-x="0"
     inkscape:window-y="38"
     inkscape:window-maximized="0"
     inkscape:current-layer="layer1" /><defs
     id="defs2"><linearGradient
       inkscape:collect="always"
       id="linearGradient26003"><stop
         style="stop-color:#ffffff;stop-opacity:1;"
         offset="0"
         id="stop25999" /><stop
         style="stop-color:#000000;stop-opacity:0;"
         offset="1"
         id="stop26001" /></linearGradient><linearGradient
       inkscape:collect="always"
       id="linearGradient25972"><stop
         style="stop-color:#000000;stop-opacity:1;"
         offset="0"
         id="stop25968" /><stop
         style="stop-color:#6373dd;stop-opacity:1;"
         offset="1"
         id="stop25970" /></linearGradient><linearGradient
       inkscape:collect="always"
       id="linearGradient25964"><stop
         style="stop-color:#000000;stop-opacity:1;"
         offset="0"
         id="stop25960" /><stop
         style="stop-color:#000000;stop-opacity:1;"
         offset="1"
         id="stop25962" /></linearGradient><linearGradient
       inkscape:collect="always"
       id="linearGradient25956"><stop
         style="stop-color:#6b008d;stop-opacity:1;"
         offset="0"
         id="stop25952" /><stop
         style="stop-color:#000000;stop-opacity:1;"
         offset="1"
         id="stop25954" /></linearGradient><linearGradient
       inkscape:collect="always"
       xlink:href="#linearGradient25972"
       id="linearGradient433"
       gradientUnits="userSpaceOnUse"
       gradientTransform="matrix(1.3798928,0,0,1.1917605,-44.931888,-55.574505)"
       x1="40.216667"
       y1="128.4426"
       x2="55.284073"
       y2="158.65988" /><linearGradient
       inkscape:collect="always"
       xlink:href="#linearGradient25964"
       id="linearGradient435"
       gradientUnits="userSpaceOnUse"
       gradientTransform="matrix(1.0562802,0,0,1.0562802,-31.91727,-43.386926)"
       x1="40.216667"
       y1="89.958328"
       x2="119.59167"
       y2="89.958328" /><linearGradient
       inkscape:collect="always"
       xlink:href="#linearGradient25956"
       id="linearGradient437"
       gradientUnits="userSpaceOnUse"
       gradientTransform="matrix(1.0562802,0,0,1.0562802,-31.91727,-43.386926)"
       x1="49.738548"
       y1="130.04584"
       x2="97.101044"
       y2="114.40371" /><linearGradient
       inkscape:collect="always"
       xlink:href="#linearGradient26003"
       id="linearGradient439"
       gradientUnits="userSpaceOnUse"
       gradientTransform="matrix(1.0562802,0,0,1.0562802,-31.91727,-43.386926)"
       x1="49.738548"
       y1="130.04584"
       x2="97.101044"
       y2="114.40371" /></defs><g
     inkscape:label="Layer 1"
     inkscape:groupmode="layer"
     id="layer1"><rect
       style="fill:#ffffff;stroke:#ddd8e7;stroke-width:0.799999"
       id="rect457"
       width="396.875"
       height="198.4375"
       x="0"
       y="0"
       ry="0" /><g
       id="g367"
       transform="matrix(0.77963381,0,0,0.77963381,157.51926,39.547313)"><path
         id="path12800-3"
         style="fill:url(#linearGradient433);fill-opacity:1;stroke-width:0.609644"
         d="m 10.562793,51.634282 v 91.728108 c 15.169726,0 27.382469,-12.63193 27.382469,-28.32241 V 86.630773 L 35.51023,88.58 24.890759,77.18542 15.403377,51.634282 Z" /><path
         id="path845-9"
         style="fill:url(#linearGradient435);fill-opacity:1;stroke-width:0.267013"
         d="M 52.483924,93.555398 A 41.921121,41.92112 0 0 0 94.405046,51.634279 41.921121,41.92112 0 0 0 52.483924,9.713161 41.921121,41.92112 0 0 0 10.562793,51.634279 41.921121,41.92112 0 0 0 52.483924,93.555398 Z m 0,-20.960561 A 20.96056,20.96056 0 0 1 31.523363,51.634279 20.96056,20.96056 0 0 1 52.483924,30.673722 20.96056,20.96056 0 0 1 73.444485,51.634279 20.96056,20.96056 0 0 1 52.483924,72.594837 Z" /><path
         id="path3816-0"
         style="fill:url(#linearGradient437);fill-opacity:1;stroke:url(#linearGradient439);stroke-width:0.845025;stroke-dasharray:none;stroke-opacity:1"
         d="M 52.483924,93.555398 A 31.440839,31.440839 0 0 0 83.92476,62.114563 31.440839,31.440839 0 0 0 54.05324,30.732673 20.96056,20.96056 0 0 1 73.444485,51.634279 20.96056,20.96056 0 0 1 52.483924,72.594837 20.96056,20.96056 0 0 1 31.523363,51.634279 20.96056,20.96056 0 0 1 51.944081,30.680809 31.440839,31.440839 0 0 0 21.043079,62.114563 31.440839,31.440839 0 0 0 52.483924,93.555398 Z" /></g></g></svg>
